<mxfile host="app.diagrams.net" modified="2023-04-01T15:59:33.636Z" agent="5.0 (Windows NT 10.0; Win64; x64) AppleWebKit/537.36 (KHTML, like Gecko) Chrome/111.0.0.0 Safari/537.36 Edg/111.0.1661.54" etag="FyVkJbg9aqWUYMV8ehm4" version="20.6.0" type="github">
  <diagram id="reOBzP5pfzMBlnATwjjv" name="第 1 页">
    <mxGraphModel dx="1395" dy="2014" grid="1" gridSize="10" guides="1" tooltips="1" connect="1" arrows="1" fold="1" page="1" pageScale="1" pageWidth="827" pageHeight="1169" math="0" shadow="0">
      <root>
        <mxCell id="0" />
        <mxCell id="1" parent="0" />
        <mxCell id="lTHZSznmALIpyBZt_b3T-22" style="edgeStyle=orthogonalEdgeStyle;rounded=0;orthogonalLoop=1;jettySize=auto;html=1;entryX=0;entryY=0.5;entryDx=0;entryDy=0;fontSize=16;" edge="1" parent="1" source="lTHZSznmALIpyBZt_b3T-6" target="lTHZSznmALIpyBZt_b3T-2">
          <mxGeometry relative="1" as="geometry" />
        </mxCell>
        <mxCell id="lTHZSznmALIpyBZt_b3T-6" value="用戶" style="shape=umlActor;verticalLabelPosition=bottom;verticalAlign=top;html=1;outlineConnect=0;" vertex="1" parent="1">
          <mxGeometry x="120" y="-630" width="40" height="76" as="geometry" />
        </mxCell>
        <mxCell id="lTHZSznmALIpyBZt_b3T-9" value="&lt;font style=&quot;font-size: 16px;&quot;&gt;AI 客服系統&lt;/font&gt;" style="swimlane;whiteSpace=wrap;html=1;" vertex="1" parent="1">
          <mxGeometry x="320" y="-820" width="270" height="400" as="geometry" />
        </mxCell>
        <mxCell id="lTHZSznmALIpyBZt_b3T-15" style="edgeStyle=orthogonalEdgeStyle;rounded=0;orthogonalLoop=1;jettySize=auto;html=1;exitX=0.5;exitY=1;exitDx=0;exitDy=0;fontSize=16;" edge="1" parent="lTHZSznmALIpyBZt_b3T-9" source="lTHZSznmALIpyBZt_b3T-2" target="lTHZSznmALIpyBZt_b3T-11">
          <mxGeometry relative="1" as="geometry" />
        </mxCell>
        <mxCell id="lTHZSznmALIpyBZt_b3T-2" value="尋找想看的書本內容" style="rounded=1;whiteSpace=wrap;html=1;" vertex="1" parent="lTHZSznmALIpyBZt_b3T-9">
          <mxGeometry x="20" y="50" width="120" height="40" as="geometry" />
        </mxCell>
        <mxCell id="lTHZSznmALIpyBZt_b3T-16" style="edgeStyle=orthogonalEdgeStyle;rounded=0;orthogonalLoop=1;jettySize=auto;html=1;exitX=0.5;exitY=1;exitDx=0;exitDy=0;entryX=0.5;entryY=0;entryDx=0;entryDy=0;fontSize=16;" edge="1" parent="lTHZSznmALIpyBZt_b3T-9" source="lTHZSznmALIpyBZt_b3T-11" target="lTHZSznmALIpyBZt_b3T-12">
          <mxGeometry relative="1" as="geometry" />
        </mxCell>
        <mxCell id="lTHZSznmALIpyBZt_b3T-11" value="AI 進行分析了解關鍵字" style="rounded=1;whiteSpace=wrap;html=1;" vertex="1" parent="lTHZSznmALIpyBZt_b3T-9">
          <mxGeometry x="20" y="135" width="160" height="35" as="geometry" />
        </mxCell>
        <mxCell id="lTHZSznmALIpyBZt_b3T-18" style="edgeStyle=orthogonalEdgeStyle;rounded=0;orthogonalLoop=1;jettySize=auto;html=1;exitX=0.5;exitY=1;exitDx=0;exitDy=0;fontSize=16;" edge="1" parent="lTHZSznmALIpyBZt_b3T-9" source="lTHZSznmALIpyBZt_b3T-12" target="lTHZSznmALIpyBZt_b3T-17">
          <mxGeometry relative="1" as="geometry" />
        </mxCell>
        <mxCell id="lTHZSznmALIpyBZt_b3T-12" value="搜索整個書庫是否有相符的書本" style="rounded=1;whiteSpace=wrap;html=1;" vertex="1" parent="lTHZSznmALIpyBZt_b3T-9">
          <mxGeometry x="20" y="220" width="190" height="35" as="geometry" />
        </mxCell>
        <mxCell id="lTHZSznmALIpyBZt_b3T-17" value="AI 將結果彙整並回答用戶" style="rounded=1;whiteSpace=wrap;html=1;" vertex="1" parent="lTHZSznmALIpyBZt_b3T-9">
          <mxGeometry x="20" y="290" width="190" height="35" as="geometry" />
        </mxCell>
        <mxCell id="lTHZSznmALIpyBZt_b3T-19" style="edgeStyle=orthogonalEdgeStyle;rounded=0;orthogonalLoop=1;jettySize=auto;html=1;exitX=0.5;exitY=1;exitDx=0;exitDy=0;fontSize=16;" edge="1" parent="1" source="lTHZSznmALIpyBZt_b3T-17">
          <mxGeometry relative="1" as="geometry">
            <mxPoint x="140" y="-530" as="targetPoint" />
            <Array as="points">
              <mxPoint x="435" y="-475" />
              <mxPoint x="140" y="-475" />
            </Array>
          </mxGeometry>
        </mxCell>
      </root>
    </mxGraphModel>
  </diagram>
</mxfile>
